<?xml version="1.0" standalone="no"?><!DOCTYPE svg PUBLIC "-//W3C//DTD SVG 1.1//EN" "http://www.w3.org/Graphics/SVG/1.1/DTD/svg11.dtd"><svg t="1515401301378" class="icon" style="" viewBox="0 0 1024 1024" version="1.1" xmlns="http://www.w3.org/2000/svg" p-id="2431" xmlns:xlink="http://www.w3.org/1999/xlink" width="32" height="32"><defs><style type="text/css"></style></defs><path d="M896 384c0-212.078-171.922-384-384-384-212.076 0-384 171.922-384 384 0 21.902 2.258 43.236 5.779 64.137l-0.385 0c0 0 14.605 239.896 378.605 575.863 364-335.967 378.607-575.863 378.607-575.863l-0.387 0C893.742 427.236 896 405.902 896 384zM827.111 437.504l-5.369 32.879c-15.451 63.436-76.693 237.234-309.74 465.344C280.904 709.482 218.746 536.324 202.658 471.742l-5.768-34.238c-3.291-19.529-4.891-37.031-4.891-53.504 0-176.449 143.553-320 320-320 176.449 0 320 143.551 320 320C832 400.473 830.4 417.975 827.111 437.504zM512 193.033c-106.039 0-192 85.961-192 192s85.961 192 192 192 192-85.961 192-192S618.039 193.033 512 193.033zM512 513.033c-70.578 0-128-57.42-128-128s57.422-128 128-128c70.58 0 128 57.42 128 128S582.58 513.033 512 513.033z" p-id="2432" fill="#d4237a"></path></svg>